# xmcd CD database file generated by Grip 3.3.1
# 
# Track frame offsets:
#       150
#       12868
#       25170
#       37945
#       51992
#       63471
#       76086
#       86674
#       99662
#       113251
#       126890
#       139808
#       153664
#       167725
#       181972
#       195218
#       206725
#       220647
#       234357
#       247878
#       258477
#       269452
#       280853
#       291858
#       305103
#       317691
#       329674
#       342827
#       356609
#       367232
#       379925
# 
# Disc length: 5225 seconds
# 
# Revision: 2
# Processed by: cddbd v1.5.2PL0 Copyright (c) Steve Scherf et al.
# Submitted via: Grip 3.3.1
# 
DISCID=cc14671f
DTITLE=Leon McAuliffe - Tulsa Straight Ahead
DYEAR=2009
DGENRE=Swing
TTITLE0=Panhandle Rag
TTITLE1=Hard-Hearted Girl (1)
TTITLE2=Hear Me Now
TTITLE3=Rag Mop
TTITLE4=Cimarron Rag
TTITLE5=Take It Away, Leon
TTITLE6=Sh-Boom (Life Could Be A Dream)
TTITLE7=Run 'Em Off
TTITLE8=No One For Me
TTITLE9=The Three Bears
TTITLE10=Bonaparte's Retreat
TTITLE11=Blue Guitar Stomp
TTITLE12=What've You Got
TTITLE13=Birmingham Bounce
TTITLE14=I've Never Lived In Tennessee
TTITLE15=Eating Right Out Of Your Hand
TTITLE16=Chattanooga Shoe Shine Boy
TTITLE17=Tulsa, Straight Ahead
TTITLE18=Jelly Bean Rag
TTITLE19=Mr. Steel Guitar
TTITLE20=Hard-Hearted Girl (2)
TTITLE21=Redskin Rag
TTITLE22=Wished You Would
TTITLE23=Somebody Else Is Beatin' My Time
TTITLE24=This Side Of Town
TTITLE25=Twin Fiddle Rag
TTITLE26=Blacksmith Blues
TTITLE27=What, Were And When
TTITLE28=Smooth Sailing
TTITLE29=There's A Right Way, A Wrong Way
TTITLE30=Daylight
EXTD=
EXTT0=
EXTT1=
EXTT2=
EXTT3=
EXTT4=
EXTT5=
EXTT6=
EXTT7=
EXTT8=
EXTT9=
EXTT10=
EXTT11=
EXTT12=
EXTT13=
EXTT14=
EXTT15=
EXTT16=
EXTT17=
EXTT18=
EXTT19=
EXTT20=
EXTT21=
EXTT22=
EXTT23=
EXTT24=
EXTT25=
EXTT26=
EXTT27=
EXTT28=
EXTT29=
EXTT30=
PLAYORDER=
